<?xml version="1.0" encoding="UTF-8"?>
<svg width="109px" height="39px" viewBox="0 0 109 39" version="1.1" xmlns="http://www.w3.org/2000/svg" xmlns:xlink="http://www.w3.org/1999/xlink">
    <!-- Generator: Sketch 52.4 (67378) - http://www.bohemiancoding.com/sketch -->
    <title>Logo / Black</title>
    <desc>Created with Sketch.</desc>
    <g id="Avanzata" stroke="none" stroke-width="1" fill="none" fill-rule="evenodd">
        <g id="Home---Transiction" transform="translate(-68.000000, -62.000000)" fill="#FEFEFE">
            <g id="Logo-/-White" transform="translate(67.919428, 62.318662)">
                <g id="Group" transform="translate(0.635405, 0.491579)">
                    <polygon id="Fill-1" points="0 29.6619046 0 37.1237939 0.953475149 37.1237939 0.953475149 33.7452409 3.75328497 33.7452409 3.75328497 32.9454564 0.953475149 32.9454564 0.953475149 30.465409 3.98396908 30.465409 3.98396908 29.6619046"></polygon>
                    <polygon id="Fill-2" points="11.2678987 37.1240229 12.2219484 37.1240229 12.2219484 29.6621335 11.2678987 29.6621335"></polygon>
                    <path d="M19.8167126,37.1228783 L19.8167126,29.6607027 L20.8589566,29.6607027 L23.2318716,33.4349989 C23.7811468,34.3097543 24.2077544,35.096376 24.5590952,35.8592474 L24.5812156,35.8495183 C24.4938832,34.851433 24.47205,33.9434844 24.47205,32.7805777 L24.47205,29.6607027 L25.3706551,29.6607027 L25.3706551,37.1228783 L24.4056889,37.1228783 L22.054607,33.3354193 C21.5409542,32.505303 21.0445381,31.6531534 20.6728006,30.8442121 L20.6391891,30.8539412 C20.6946337,31.7982306 20.7147432,32.6955917 20.7147432,33.9334692 L20.7147432,37.1228783 L19.8167126,37.1228783 Z" id="Fill-3"></path>
                    <path d="M32.9623168,37.1228783 L32.9623168,29.6607027 L34.0057099,29.6607027 L36.3766139,33.4349989 C36.9267509,34.3097543 37.3530713,35.096376 37.7067103,35.8592474 L37.7291179,35.8495183 C37.6420728,34.851433 37.618516,33.9434844 37.618516,32.7805777 L37.618516,29.6607027 L38.5171211,29.6607027 L38.5171211,37.1228783 L37.5521548,37.1228783 L35.201073,33.3354193 C34.6859838,32.505303 34.1904295,31.6531534 33.8178302,30.8442121 L33.7870914,30.8539412 C33.8413869,31.7982306 33.8609218,32.6955917 33.8609218,33.9334692 L33.8609218,37.1228783 L32.9623168,37.1228783 Z" id="Fill-5"></path>
                    <path d="M52.4329745,33.3159326 C52.4329745,35.8815383 50.8854088,37.2441765 48.9974188,37.2441765 C47.0410567,37.2441765 45.6710287,35.7152861 45.6710287,33.4584344 C45.6710287,31.0885542 47.1315493,29.5361996 49.1060099,29.5361996 C51.1252858,29.5361996 52.4329745,31.1000001 52.4329745,33.3159326 M46.6908651,33.4361149 C46.6908651,35.031964 47.5492512,36.4584133 49.0505652,36.4584133 C50.5656686,36.4584133 51.4240547,35.0514221 51.4240547,33.3582825 C51.4240547,31.873459 50.6541501,30.3256828 49.0614818,30.3256828 C47.481741,30.3256828 46.6908651,31.7970574 46.6908651,33.4361149" id="Fill-7"></path>
                    <path d="M61.2202003,37.1228783 L58.8062047,29.6607027 L59.8360957,29.6607027 L60.9889417,33.3354193 C61.3063837,34.3432336 61.5836068,35.2511822 61.7803921,36.1259376 L61.8027998,36.1259376 C62.0119381,35.2611974 62.3190381,34.3220586 62.648833,33.3480098 L63.8987789,29.6607027 L64.921488,29.6607027 L62.27451,37.1228783 L61.2202003,37.1228783 Z" id="Fill-9"></path>
                    <path d="M72.2167077,34.7778071 L71.4479522,37.1227924 L70.4585673,37.1227924 L72.9722484,29.6617615 L74.1259562,29.6617615 L76.6494047,37.1227924 L75.630143,37.1227924 L74.8401289,34.7778071 L72.2167077,34.7778071 Z M74.6419072,34.0229478 L73.9182543,31.8736879 C73.7522077,31.3892388 73.6433294,30.9442782 73.5335893,30.5101912 L73.5111816,30.5101912 C73.4008669,30.9545795 73.279923,31.4086969 73.1380077,31.8628143 L72.4140675,34.0229478 L74.6419072,34.0229478 Z" id="Fill-11"></path>
                    <polygon id="Fill-13" points="2.18572471 2.86148307e-05 2.18572471 0.00632387758 0.0141915253 0.00632387758 0.0141915253 22.0377405 8.07463315 22.0377405 8.07463315 22.0165655 94.8354134 22.0165655 99.3382063 14.3226098 8.07463315 14.3226098 8.07463315 7.69055051 103.221628 7.69055051 107.721835 2.86148307e-05"></polygon>
                </g>
            </g>
        </g>
    </g>
</svg>