<?xml version="1.0" encoding="utf-8"?>
<!-- Generator: Adobe Illustrator 23.0.2, SVG Export Plug-In . SVG Version: 6.00 Build 0)  -->
<svg version="1.1" id="Livello_1" xmlns="http://www.w3.org/2000/svg" xmlns:xlink="http://www.w3.org/1999/xlink" x="0px" y="0px"
	 viewBox="0 0 1366 237" style="enable-background:new 0 0 1366 237;" xml:space="preserve">
<style type="text/css">
	.st0{fill:#FFFFFF;}
</style>
<path class="st0" d="M683.06,213.48c-54.44,0-98.73-44.29-98.73-98.73s44.29-98.73,98.73-98.73s98.73,44.29,98.73,98.73
	S737.5,213.48,683.06,213.48z M683.06,20.74c-51.84,0-94.01,42.17-94.01,94.01s42.17,94.01,94.01,94.01
	c51.83,0,94.01-42.17,94.01-94.01S734.89,20.74,683.06,20.74z"/>
<path class="st0" d="M683.06,183.05c-37.66,0-68.3-30.64-68.3-68.3v-2.36h136.59v2.36C751.36,152.41,720.72,183.05,683.06,183.05z
	 M619.53,117.11c1.24,33.97,29.27,61.21,63.53,61.21c34.27,0,62.29-27.25,63.53-61.21H619.53z"/>
<ellipse class="st0" cx="648.32" cy="69.56" rx="8.76" ry="13.83"/>
<ellipse class="st0" cx="717.79" cy="69.56" rx="8.76" ry="13.83"/>
<path class="st0" d="M956.96,213.43c-25.28,0-50.56-9.62-69.81-28.87c-38.49-38.49-38.49-101.13,0-139.62
	c38.49-38.49,101.13-38.49,139.62,0l0,0c38.49,38.49,38.49,101.13,0,139.62C1007.52,203.81,982.24,213.43,956.96,213.43z
	 M956.96,20.79c-24.07,0-48.15,9.16-66.47,27.49c-36.65,36.65-36.65,96.29,0,132.95c36.65,36.65,96.29,36.65,132.95,0
	c36.65-36.65,36.65-96.29,0-132.95C1005.11,29.95,981.03,20.79,956.96,20.79z"/>
<path class="st0" d="M956.96,183.01c-17.49,0-34.98-6.66-48.29-19.97l-1.67-1.67l96.59-96.59l1.67,1.67
	c26.63,26.63,26.63,69.96,0,96.59l0,0C991.94,176.36,974.45,183.01,956.96,183.01z M913.71,161.34
	c24.9,23.14,63.98,22.59,88.21-1.64c24.23-24.23,24.78-63.31,1.64-88.21L913.71,161.34z"/>
<ellipse transform="matrix(0.7071 -0.7071 0.7071 0.7071 187.82 668.1572)" class="st0" cx="900.45" cy="107.36" rx="8.76" ry="13.83"/>
<ellipse transform="matrix(0.7071 -0.7071 0.7071 0.7071 236.9431 688.5046)" class="st0" cx="949.57" cy="58.24" rx="8.76" ry="13.83"/>
<path class="st0" d="M1230.27,213.48c-54.44,0-98.73-44.29-98.73-98.73s44.29-98.73,98.73-98.73c54.44,0,98.73,44.29,98.73,98.73
	S1284.71,213.48,1230.27,213.48z M1230.27,20.74c-51.83,0-94.01,42.17-94.01,94.01s42.17,94.01,94.01,94.01
	c51.84,0,94.01-42.17,94.01-94.01S1282.11,20.74,1230.27,20.74z"/>
<path class="st0" d="M1230.27,183.05h-2.36V46.45h2.36c37.66,0,68.3,30.64,68.3,68.3S1267.93,183.05,1230.27,183.05z M1232.63,51.22
	v127.06c33.97-1.24,61.21-29.27,61.21-63.53S1266.6,52.46,1232.63,51.22z"/>
<ellipse class="st0" cx="1185.08" cy="149.49" rx="13.83" ry="8.76"/>
<ellipse class="st0" cx="1185.08" cy="80.01" rx="13.83" ry="8.76"/>
<path class="st0" d="M413.29,213.43c-25.28,0-50.56-9.62-69.81-28.87c-38.49-38.49-38.49-101.13,0-139.62
	c38.49-38.49,101.13-38.49,139.62,0c38.49,38.49,38.49,101.13,0,139.62l0,0C463.85,203.81,438.57,213.43,413.29,213.43z
	 M413.29,20.79c-24.08,0-48.14,9.16-66.47,27.49c-36.65,36.65-36.65,96.29,0,132.95c36.65,36.65,96.29,36.65,132.95,0
	c36.65-36.65,36.65-96.29,0-132.95C461.44,29.95,437.36,20.79,413.29,20.79z"/>
<path class="st0" d="M413.29,183.01c-17.49,0-34.98-6.66-48.29-19.97l0,0c-26.63-26.63-26.63-69.96,0-96.59l1.67-1.67l96.59,96.59
	l-1.67,1.67C448.27,176.36,430.78,183.01,413.29,183.01z M368.34,159.7c24.23,24.23,63.31,24.78,88.21,1.64L366.7,71.5
	C343.56,96.39,344.11,135.47,368.34,159.7L368.34,159.7z"/>
<ellipse transform="matrix(0.7071 -0.7071 0.7071 0.7071 82.0347 314.5227)" class="st0" cx="420.68" cy="58.24" rx="13.83" ry="8.76"/>
<ellipse transform="matrix(0.7071 -0.7071 0.7071 0.7071 61.6872 363.6458)" class="st0" cx="469.8" cy="107.36" rx="13.83" ry="8.76"/>
<path class="st0" d="M139.98,213.48c-54.44,0-98.73-44.29-98.73-98.73s44.29-98.73,98.73-98.73s98.73,44.29,98.73,98.73
	S194.42,213.48,139.98,213.48z M139.98,20.74c-51.83,0-94.01,42.17-94.01,94.01s42.17,94.01,94.01,94.01s94.01-42.17,94.01-94.01
	S191.81,20.74,139.98,20.74z"/>
<path class="st0" d="M142.34,183.05h-2.36c-37.66,0-68.3-30.64-68.3-68.3s30.64-68.3,68.3-68.3h2.36V183.05z M137.62,51.22
	c-33.97,1.24-61.21,29.27-61.21,63.53s27.25,62.29,61.21,63.53V51.22z"/>
<ellipse class="st0" cx="185.17" cy="80.01" rx="13.83" ry="8.76"/>
<ellipse class="st0" cx="185.17" cy="149.49" rx="13.83" ry="8.76"/>
</svg>
