<svg id="Livello_1" data-name="Livello 1" xmlns="http://www.w3.org/2000/svg" viewBox="0 0 346.994 358.122">
  <title>tronchi</title>
  <path d="M421.242,420.532l8.351-2.888a66.438,66.438,0,0,1,3.064,24.735c-.832,17.872-8.683,39.187-25.431,46.82-18.049,8.237-26.889-4.935-42.65-10.159-19-6.287-47.311,4.106-51.1-34.806-5.188-53.275,79-78.875,108.918-40.139l-7.3,4.579c-11.243-16.057-32-24.212-63.537-9.28-18.608,8.8-35.924,27.325-31.082,48.592,7.854,34.54,32.151,16.58,48.213,21.917,9.237,3.071,14.781,12.378,24.085,14.049,28.264,5.167,39.287-34.433,28.468-63.42m-12.435,4.3,8.456-2.924c10,26.231.356,62.254-23.742,57.887-3.579-.648-6.746-3.192-10.243-5.956-3.744-2.906-7.832-6.105-13.305-7.921-17.469-5.786-38.6,11.332-45.341-18.738-4.345-19.355,11.975-36.024,28.752-43.986,28.839-13.689,47.725-6.582,58.069,7.761l-7.74,4.848c-10.43-14.192-28.888-19.676-52.318-4.021-16.979,11.325-35.266,38.588-9.741,47.2,17.011,5.732,21.919-7.462,44.913,8.29,15.817,10.834,25.366-.457,26.454-15.653a58.538,58.538,0,0,0-4.214-26.784M395.871,429.3l8.451-2.92c8.676,21.143,5.1,51.433-15.383,37.433-24.488-16.733-30.529-3.6-45.991-8.774-31.068-10.4,23.186-65.842,51.563-42.9a27.99,27.99,0,0,1,5.449,6.024l-7.867,4.93c-6.578-8.387-17.859-12.994-35.049-3.992-8.4,4.417-23.2,15.752-17.358,26.342,4.3,7.789,16.548,3.758,24.475,4.861,12.081,1.68,31.754,15.124,34.964-1.477.938-4.817,0-12.575-3.254-19.525m-10.421,3.61,6.362-2.2c2.811,5.767,4.079,12.443,3.154,17.251-2.13,11.068-17.822-.138-30.283-1.823-6.985-.944-23.478,3.116-21.8-6.414,2.234-12.62,24.539-23.139,36.093-20.909,3.669.691,6.913,3.173,9.522,6.529l-4.981,3.119c-3.512-5.727-10.618-9.419-21.361-3.684-9.384,4.993-17,18.614-.758,17.468,9.007-.637,17.215,5.069,21.835,2.158,2.816-1.77,3.553-6.7,2.212-11.493M350.547,535.4l-1.307,6.435c-21.646-7.074-42.053-21.047-58.259-42.776-30.935-41.481-30.637-81.692-9.623-119.7,21.886-39.607,66.67-66.1,119.326-59.729,33.725,4.317,61.007,23.263,77.916,49.224l-6.438,4.043c-42.935-73.224-141.665-47.909-178.29-2.526-12.306,16.525-19.524,35.955-22.06,56.612C267.1,465.31,301.725,517.566,350.547,535.4m2.15-10.585-1.331,6.542c-46.448-17.167-79.633-66.716-75.356-104.027,4.962-43.236,29.249-73.8,72.183-88.629,47.432-16.321,89.89-7.987,117.924,32.9.813,1.188,1.6,2.392,2.359,3.605l-8.111,5.086c-47.475-78.56-186.047-32.175-179.343,62.586,2.473,35,41.037,67.95,71.675,81.94M355.7,510l-2.127,10.488a154.477,154.477,0,0,1-18.848-10.995c-36.742-24.241-60.43-56.241-44.883-101.571,13.006-37.91,56.707-62.982,95.108-63.305,32.609-.272,57.294,15.332,71.686,38.009l-7.723,4.845c-12.2-19.7-31.427-32.342-57.691-34.583-61.589-5.259-116.676,50.791-95.639,109.95,6.426,18.483,25.665,28.438,43.127,37.931,5.649,3.074,11.3,6.34,16.99,9.231m3.034-14.9-2.166,10.657c-3.973-2.025-7.919-4.219-11.905-6.414-18.12-9.965-38.51-19.114-45.117-37.747-19.983-56.352,32.788-109.5,91.116-104.419,23.933,2.087,42.7,14.814,54.474,32.661l-8.424,5.282c-14.264-22.045-37.318-30.793-60.786-29.4-55.889,3.316-91.919,55.47-70.376,99.794,8.955,18.432,30.785,19.107,47,26.465,2.082.946,4.135,2,6.188,3.125m2.572-12.684-1.707,8.406c-1.774-.951-3.549-1.849-5.322-2.65-15.145-6.821-36.949-7.708-44.916-24.309-21.517-44.845,19.317-94.205,72.135-94.071,22.648.065,40.531,11.171,51.607,27.585l-7.643,4.788c-13.249-18.053-34.877-23.707-56.094-20.612-46.6,6.795-75.492,47.407-52.769,85.468,8.9,14.9,29.883,11.394,44.709,15.4m5.909,12.687-.394-10.683c8.612,3.937,17.35,11.119,26.426,11.584,39.035,1.982,49.773-51.727,39.843-79.564l8.154-2.818a78.656,78.656,0,0,1,4.262,31.084c-1.989,29.01-18.368,49.356-45.8,58.029-11.64,3.675-22.2-1.791-32.487-7.632m.571,15.725-.392-10.841c10.357,5.808,20.926,10.755,33.466,6.766,43.555-13.846,57.6-55.682,44.754-92.623-.2-.612-.4-1.215-.608-1.813l9.465-3.27a89.506,89.506,0,0,1,3.747,40.8c-5.013,33.305-26.483,55.962-58.745,63.734-11.53,2.771-21.815,1.012-31.687-2.756m.542,14.852-.371-10.263c.686.249,1.373.481,2.067.709,20,6.475,41.614,1.091,59.815-11.112,29.247-19.623,38.854-58.165,30.575-89.876q-.975-3.789-2.168-7.4l8.525-2.95a100.536,100.536,0,0,1-3.95,68.6c-15.286,34.5-45.887,54.332-83.693,53.6a54.31,54.31,0,0,1-10.8-1.308m.382,10.4-.223-6.213c15.087,2.857,31.485.966,46.135-4.358,37.146-13.5,59.936-51.769,60.4-89.276a110.033,110.033,0,0,0-4.511-32.727l9.244-3.2c16.743,56.3-14.7,123.545-77.24,135.552a92.857,92.857,0,0,1-33.8.22m.38,10.293-.22-6.086a96.577,96.577,0,0,0,34.411-.347C463,528.554,502.8,463,483.53,399.007l8.143-2.819a117.151,117.151,0,0,1,4.394,54.711c-10.5,66.55-69.866,103.177-126.973,95.471m-6.69,10.423.483.09c97.139,16.845,172.172-82.928,135.776-172.588-34.673,14.056-70.388,29.548-104.218,41.654,30.981-17.569,65.659-36.639,98.186-54.532a140.469,140.469,0,0,0-8.132-13.346c-39.59-57.652-122.189-65.5-179.844-23.1-28.118,23.616-43.018,56.258-47.676,85.356-8.994,56.153,43.711,120.192,97.34,134.651,3.081-23.961,6.109-44.189,9.2-68.146-.392,24.556-.723,45.4-1.111,69.958" transform="translate(-255.971 -200.637)" style="fill: #fff"/>
  <path d="M552.986,265.4l4.81-1.664a38.277,38.277,0,0,1,1.765,14.248c-.48,10.294-5,22.571-14.648,26.968-10.4,4.744-15.489-2.843-24.567-5.852-10.942-3.621-27.251,2.365-29.432-20.048-2.989-30.686,45.5-45.432,62.736-23.12l-4.2,2.637c-6.476-9.248-18.432-13.946-36.6-5.345-10.718,5.07-20.691,15.739-17.9,27.989,4.523,19.895,18.519,9.55,27.77,12.624,5.32,1.769,8.514,7.13,13.873,8.093,16.28,2.976,22.629-19.834,16.4-36.53m-7.163,2.476,4.871-1.685c5.76,15.11.205,35.859-13.676,33.344-2.061-.374-3.885-1.839-5.9-3.431a25.4,25.4,0,0,0-7.663-4.562c-10.063-3.333-22.235,6.527-26.117-10.794-2.5-11.148,6.9-20.75,16.561-25.336,16.612-7.885,27.49-3.791,33.448,4.471l-4.458,2.792c-6.007-8.175-16.64-11.333-30.135-2.316-9.78,6.523-20.314,22.227-5.611,27.186,9.8,3.3,12.625-4.3,25.87,4.775,9.111,6.24,14.611-.263,15.237-9.017a33.7,33.7,0,0,0-2.427-15.427m-7.451,2.574,4.868-1.683c5,12.179,2.94,29.626-8.861,21.562-14.105-9.638-17.584-2.071-26.491-5.054-17.895-5.99,13.355-37.925,29.7-24.711a16.1,16.1,0,0,1,3.139,3.469l-4.531,2.84c-3.789-4.831-10.287-7.484-20.188-2.3-4.838,2.544-13.366,9.073-10,15.173,2.478,4.486,9.532,2.164,14.1,2.8,6.959.967,18.29,8.711,20.139-.851.54-2.775,0-7.244-1.874-11.246m-6,2.079,3.665-1.269c1.619,3.323,2.35,7.167,1.817,9.937-1.227,6.375-10.266-.08-17.443-1.05-4.024-.544-13.524,1.8-12.554-3.695,1.286-7.269,14.134-13.327,20.789-12.043a9.44,9.44,0,0,1,5.485,3.761l-2.869,1.8c-2.023-3.3-6.116-5.425-12.3-2.122-5.405,2.876-9.8,10.722-.437,10.062,5.188-.367,9.916,2.92,12.577,1.243,1.623-1.02,2.047-3.861,1.274-6.62m-20.1,59.033-.753,3.707c-12.468-4.075-24.223-12.123-33.558-24.639-17.818-23.893-17.646-47.054-5.542-68.945,12.606-22.813,38.4-38.072,68.731-34.4a62.706,62.706,0,0,1,44.88,28.353l-3.708,2.329c-24.731-42.177-81.6-27.6-102.7-1.455a68,68,0,0,0-12.706,32.609c-2.717,22.075,17.23,52.174,45.352,62.445m1.238-6.1-.767,3.769c-26.754-9.888-45.869-38.429-43.4-59.92,2.858-24.9,16.848-42.508,41.577-51.05,27.321-9.4,51.777-4.6,67.924,18.949.469.684.924,1.377,1.359,2.076l-4.671,2.93c-27.346-45.251-107.163-18.534-103.3,36.049,1.424,20.162,23.637,39.139,41.285,47.2m1.732-8.532-1.226,6.04a89.047,89.047,0,0,1-10.856-6.332c-21.163-13.963-34.807-32.395-25.852-58.5,7.491-21.836,32.663-36.278,54.782-36.464,18.783-.156,33,8.832,41.291,21.893l-4.449,2.791c-7.029-11.349-18.1-18.629-33.23-19.92-35.475-3.029-67.205,29.256-55.088,63.332,3.7,10.646,14.783,16.379,24.842,21.848,3.254,1.77,6.511,3.651,9.786,5.317m1.747-8.583-1.247,6.139c-2.288-1.167-4.562-2.43-6.858-3.695-10.437-5.74-22.181-11.009-25.987-21.742-11.51-32.459,18.886-63.074,52.483-60.145a41.29,41.29,0,0,1,31.377,18.812l-4.852,3.043c-8.216-12.7-21.5-17.737-35.013-16.937-32.192,1.91-52.945,31.951-40.537,57.482,5.159,10.616,17.732,11,27.07,15.243,1.2.545,2.382,1.153,3.564,1.8m1.482-7.306-.984,4.842c-1.021-.548-2.043-1.065-3.065-1.526-8.723-3.929-21.283-4.44-25.871-14-12.394-25.831,11.126-54.262,41.549-54.185a35.2,35.2,0,0,1,29.726,15.889l-4.4,2.758c-7.632-10.4-20.089-13.655-32.311-11.873-26.843,3.914-43.483,27.307-30.395,49.23,5.126,8.58,17.213,6.563,25.753,8.867m3.4,7.308-.226-6.153c4.96,2.267,9.993,6.4,15.221,6.672,22.484,1.141,28.669-29.8,22.949-45.829l4.7-1.623a45.3,45.3,0,0,1,2.455,17.9c-1.146,16.71-10.58,28.429-26.383,33.425-6.705,2.117-12.786-1.032-18.713-4.4m.329,9.057-.225-6.244c5.965,3.346,12.053,6.195,19.276,3.9,25.088-7.976,33.176-32.073,25.778-53.352-.114-.352-.23-.7-.35-1.044l5.452-1.883a51.546,51.546,0,0,1,2.158,23.5c-2.887,19.184-15.254,32.234-33.837,36.711-6.641,1.6-12.566.583-18.252-1.588m.313,8.555-.214-5.911c.395.143.791.277,1.19.408,11.522,3.73,23.97.629,34.454-6.4,16.846-11.3,22.38-33.5,17.611-51.769q-.561-2.183-1.249-4.261l4.911-1.7a57.915,57.915,0,0,1-2.275,39.512c-8.8,19.874-26.432,31.3-48.208,30.874a31.275,31.275,0,0,1-6.22-.754m.22,5.989-.129-3.578a51.255,51.255,0,0,0,26.574-2.51c21.4-7.774,34.523-29.819,34.788-51.423a63.35,63.35,0,0,0-2.6-18.851l5.325-1.842c9.644,32.429-8.467,71.162-44.491,78.078a53.472,53.472,0,0,1-19.469.126m.219,5.929-.128-3.5a55.633,55.633,0,0,0,19.821-.2c34.4-6.556,57.322-44.316,46.221-81.176l4.691-1.623a67.478,67.478,0,0,1,2.531,31.513c-6.048,38.333-40.243,59.43-73.136,54.991m-3.854,6,.278.052c55.952,9.7,99.171-47.767,78.207-99.411-19.972,8.1-40.543,17.02-60.029,23.993,17.845-10.12,37.819-21.1,56.555-31.411a81.29,81.29,0,0,0-4.684-7.687c-22.8-33.207-70.381-37.73-103.591-13.3-16.2,13.6-24.778,32.405-27.461,49.165-5.18,32.344,25.178,69.231,56.068,77.559,1.775-13.8,3.519-25.453,5.3-39.252-.226,14.144-.416,26.149-.64,40.3" transform="translate(-255.971 -200.637)" style="fill: #fff"/>
</svg>
