<?xml version="1.0" encoding="utf-8"?>
<!-- Generator: Adobe Illustrator 23.0.2, SVG Export Plug-In . SVG Version: 6.00 Build 0)  -->
<svg version="1.1" id="Livello_1" xmlns="http://www.w3.org/2000/svg" xmlns:xlink="http://www.w3.org/1999/xlink" x="0px" y="0px"
	 viewBox="0 0 421 447" style="enable-background:new 0 0 421 447;" xml:space="preserve">
<style type="text/css">
	.st0{fill:#FFFFFF;}
</style>
<path class="st0" d="M296.01,392.35v-39.88l33.46,18.7c0.8,0.44,1.77,0.45,2.6,0l81.97-45.78l0.14-0.19l0.1,0.04
	c0.06-0.04,0.12-0.09,0.17-0.13v-0.07l0.23-0.13c0.52-0.53,0.79-1.19,0.79-1.88v-79.85c0-0.95-0.52-1.84-1.37-2.32l-34.71-19.38
	l34.43-19.22v-0.2l0.34-0.01c0.05-0.04,0.1-0.08,0.15-0.12c0.1-0.09,0.15-0.12,0.2-0.16c0.04-0.03,0.08-0.06,0.12-0.09
	c0.11-0.1,0.2-0.24,0.28-0.35l0.07-0.09c0.03-0.04,0.06-0.08,0.09-0.12c0.06-0.1,0.11-0.26,0.16-0.44l0.08-0.18
	c0.07-0.23,0.1-0.46,0.1-0.69l0.05-79.89c0-0.96-0.52-1.84-1.36-2.32l-82.03-45.81c-0.03-0.02-0.08-0.03-0.12-0.05
	c-0.07-0.02-0.15-0.05-0.22-0.08l-0.09-0.04c-0.07-0.03-0.11-0.05-0.15-0.06c-0.17-0.04-0.29-0.05-0.42-0.06l-0.17-0.02
	c-0.04-0.01-0.09-0.01-0.12-0.01c-0.1,0-0.2,0.02-0.3,0.04l-0.23,0.03c-0.04,0-0.08,0-0.12,0.01c-0.07,0.02-0.13,0.04-0.21,0.08
	l-0.17,0.07c-0.04,0.02-0.09,0.03-0.14,0.05c-0.04,0.01-0.08,0.03-0.1,0.04l-33.52,18.63V50.58c0-0.96-0.52-1.84-1.36-2.32
	L212.62,2.46c-0.04-0.03-0.12-0.05-0.18-0.07l-0.22-0.08c-0.07-0.03-0.15-0.07-0.22-0.1c-0.12-0.03-0.25-0.04-0.4-0.05l-0.16-0.02
	c-0.04-0.01-0.09-0.01-0.13-0.02c-0.11,0-0.2,0.02-0.29,0.03l-0.14,0.02c-0.03,0.01-0.11,0.02-0.19,0.03
	c-0.14,0.03-0.25,0.08-0.35,0.14l-0.17,0.06c-0.04,0.01-0.09,0.03-0.13,0.05l-81.61,45.36c-0.84,0.47-1.36,1.36-1.36,2.32v40.35
	L93.55,71.77c-0.04-0.02-0.08-0.03-0.12-0.05c-0.06-0.02-0.13-0.04-0.19-0.07l-0.1-0.04c-0.06-0.03-0.13-0.06-0.17-0.06
	c-0.13-0.04-0.21-0.04-0.29-0.05l-0.14-0.02c-0.04,0-0.1-0.01-0.16-0.02c-0.14-0.02-0.26,0-0.38,0.02l-0.28,0.04
	c-0.04,0-0.08,0.01-0.12,0.02c-0.09,0.02-0.18,0.07-0.27,0.11l-0.21,0.08c-0.06,0.02-0.11,0.03-0.14,0.05L9.35,117.14
	c-0.84,0.47-1.36,1.36-1.36,2.32v80.57c0,0.96,0.52,1.84,1.36,2.31l34.08,19.03L9.35,240.4c-0.84,0.46-1.36,1.35-1.36,2.32v80.56
	c0,0.97,0.52,1.85,1.36,2.32l81.61,45.54c0.8,0.45,1.8,0.44,2.59,0l33.5-18.71v40.18c0,0.96,0.52,1.84,1.36,2.31L210,440.5
	c0.79,0.43,1.76,0.44,2.6,0l82.13-45.87C295.52,394.14,296.01,393.27,296.01,392.35z M410.18,317.49l-0.67,0.63l-9.4-5.24
	l10.07-10.06V317.49z M410.18,295.32l-14.88,14.87l-9.42-5.24l24.3-24.29V295.32z M410.18,273.15l-0.14,0.14l-28.98,28.97
	l-9.41-5.25l38.53-38.52V273.15z M410.18,244.72v6.26l-0.14,0.14l-43.21,43.19l-9.4-5.24l47.35-47.37L410.18,244.72z M399.96,239.02
	l-0.45,0.45l-46.91,46.91l-9.41-5.24l0.45-0.45l46.92-46.92L399.96,239.02z M385.75,231.08l-47.38,47.37l-4.92-2.74v-7l42.88-42.87
	L385.75,231.08z M347.89,209.94l9.4,5.25l-23.84,23.84v-14.65L347.89,209.94z M333.45,216.87v-15l9.63,5.37L333.45,216.87z
	 M333.59,246.39l28.52-28.5l9.41,5.25l-38.06,38.06v-14.67L333.59,246.39z M410.12,195.26l-2.06-1.15l2.06-2.08V195.26z
	 M410.15,184.52l-6.9,6.89l-9.41-5.26l16.32-16.29V184.52z M410.15,162.35l-0.14,0.14l-20.99,20.98l-9.41-5.25l30.55-30.53
	L410.15,162.35z M410.16,140.17l-0.14,0.14l-35.21,35.22l-9.41-5.25l0.45-0.45l44.33-44.32L410.16,140.17z M407.95,120.22
	l-47.36,47.36l-9.41-5.24l47.37-47.38L407.95,120.22z M393.72,112.28l-47.36,47.36l-9.42-5.24l47.38-47.38L393.72,112.28z
	 M333.45,78.62l3.4,1.88l-3.4,3.37V78.62z M333.45,91.39l8.2-8.19l9.41,5.25l-17.61,17.6V91.39z M333.45,113.55l0.14-0.14
	l22.28-22.27l9.41,5.26l-31.83,31.82V113.55z M333.45,135.72l36.64-36.64l9.42,5.25l-0.45,0.45l-45.62,45.6V135.72z M331.11,157.21
	l76.22,42.56l-33.39,18.64l-41.36-23.12c-0.19-0.17-0.36-0.29-0.54-0.4c-0.78-0.45-1.88-0.44-2.73,0.03l-41.9,23.4l-0.23-0.13
	l-32.56-18.27L331.11,157.21z M175.57,240.84l-34.7-19.38l34.83-19.45c0.74-0.45,1.23-1.32,1.23-2.26v-39.7l33.1,18.51
	c0.79,0.44,1.81,0.44,2.6,0l33.9-18.94v40.29c0,0.2,0.03,0.43,0.1,0.7l0.04,0.09c0.03,0.07,0.06,0.15,0.08,0.23l0.04,0.09
	c0.03,0.07,0.06,0.15,0.1,0.22c0.04,0.07,0.09,0.13,0.14,0.19l0.1,0.12c0.05,0.08,0.12,0.17,0.19,0.25c0.03,0.02,0.08,0.06,0.14,0.1
	l0.22,0.17c0.02,0.02,0.05,0.04,0.08,0.06h0.08l0.11,0.12l34.03,19.1l-34.1,19.04c-0.83,0.46-1.35,1.35-1.35,2.32v40.59
	l-33.91-18.94c-0.02-0.01-0.07-0.03-0.11-0.04c-0.07-0.02-0.14-0.05-0.21-0.08c-0.02,0-0.1-0.03-0.17-0.07
	c-0.05-0.02-0.09-0.04-0.14-0.06c-0.02,0-0.08-0.01-0.13-0.01c-0.09-0.01-0.18-0.02-0.26-0.04c0,0-0.05,0-0.11-0.01
	c-0.15-0.02-0.28-0.01-0.42,0.01l-0.28,0.04c-0.05,0.01-0.11,0.01-0.17,0.02c-0.03,0.01-0.1,0.04-0.17,0.07l-0.16,0.06
	c-0.04,0.02-0.1,0.04-0.16,0.06c-0.04,0.02-0.09,0.03-0.14,0.05l-33.08,18.28v-39.5C176.92,242.2,176.4,241.31,175.57,240.84z
	 M153.35,308.3l-9.41-5.25l27.68-27.68v14.66L153.35,308.3z M171.62,297.54v14.66l-4.03,4.04l-9.41-5.25L171.62,297.54z
	 M139.13,300.37l-9.41-5.25l41.91-41.91v14.67L139.13,300.37z M124.9,292.43l-9.42-5.25l0.45-0.45l46.91-46.91l8.78,4.9v0.99
	L124.9,292.43z M131.92,226.45l3.49-1.95l8.41,4.69l-47.38,47.37l-1.52-0.85v-12.26L131.92,226.45z M94.91,255.93v-8.8l19.94-11.14
	L94.91,255.93z M148.63,231.88l9.4,5.24l-47.37,47.37l-9.41-5.25L148.63,231.88z M147.97,143.88l9.39,5.27l-24.48,24.47l-9.42-5.24
	L147.97,143.88z M118.65,165.69l-9.41-5.25l24.53-24.52l9.39,5.27L118.65,165.69z M162.17,151.85l9.39,5.26l-24.44,24.45l-9.42-5.25
	L162.17,151.85z M171.62,164.55v14.66l-10.28,10.28l-9.41-5.25L171.62,164.55z M171.62,186.72v8.52l-5.47-3.05L171.62,186.72z
	 M217.92,273.41l9.42,5.26l-13.27,13.26l-0.04-14.62L217.92,273.41z M232.15,281.35l9.4,5.26l-27.39,27.4l-0.04-14.61L232.15,281.35
	z M246.36,289.31l1.4,0.78h0.35l0,0.2l7.65,4.27l-0.45,0.45l-41.07,41.09l-0.06-14.61L246.36,289.31z M260.59,297.24l9.41,5.26
	l-0.45,0.45l-46.92,46.91l-8.36-4.66l-0.02-1.64L260.59,297.24z M274.81,305.19l9.39,5.25l-47.33,47.36l-9.42-5.24L274.81,305.19z
	 M280.81,302.46l-28.96-16.18v-42l0.25-0.14l75.86-42.38l0.19,73.94l-0.24,0.14L280.81,302.46z M328.15,78.61v74.17l-0.25,0.14
	l-71.42,39.89l-4.62,2.6v-74.38L328.15,78.61z M265.88,107.09l-4.48,2.51l-8.12-4.53l37.41-37.41v14.65L265.88,107.09z
	 M290.69,89.81v3.42l-7.75,4.35L290.69,89.81z M290.69,52.14v8.01l-42.24,42.23l-9.4-5.26l47.37-47.37L290.69,52.14z M281.61,47.06
	l-47.38,47.38l-9.41-5.25l47.38-47.36L281.61,47.06z M213.97,11.38l1.34-1.34l9.41,5.26l-10.75,10.74V11.38z M213.97,33.55
	l15.56-15.56l9.42,5.24L213.97,48.2V33.55z M213.97,55.71l29.78-29.78l9.41,5.25l-39.19,39.18V55.71z M213.97,77.87l44-44l9.41,5.24
	L220.01,86.5l-6.04-3.37V77.87z M211.62,87.89l44.33,24.75l-8.07,4.5c-0.17,0.1-0.34,0.24-0.48,0.37l-0.1,0.08
	c-0.15,0.17-0.26,0.32-0.35,0.46l-0.06,0.08c-0.08,0.14-0.15,0.31-0.2,0.51l-0.06,0.13c-0.07,0.27-0.1,0.49-0.1,0.68v34.08
	l-35.22,19.66l-76.16-42.6L211.62,87.89z M132.36,51.7l76.3-42.42v73.84l-76.3,42.93V51.7z M127.14,131.27
	c0.07,0.14,0.1,0.21,0.12,0.28l0.05,0.15c0.03,0.09,0.06,0.17,0.09,0.22c0.03,0.04,0.08,0.1,0.13,0.16l0.15,0.19
	c0.05,0.07,0.1,0.15,0.16,0.22c0.01,0.01,0.05,0.04,0.1,0.07c0.06,0.04,0.13,0.09,0.19,0.14c0.02,0.01,0.08,0.06,0.13,0.1
	c0.03,0.03,0.06,0.05,0.08,0.07l0.23,0.08l0.09,0.58l-24.22,24.23l-9.34-5.22l0.38-0.48l31.59-31.59v10.13
	C127.05,130.85,127.08,131.08,127.14,131.27z M94.91,86.12l4.8-4.81l9.41,5.24l-14.21,14.22V86.12z M94.91,108.28l19.03-19.04
	l9.4,5.26l-28.43,28.44V108.28z M94.91,130.45l32.14-32.15v14.66L94.91,145.1V130.45z M13.29,121.01L89.6,78.61v73.84l-76.31,42.93
	V121.01z M16.07,200.02l76.48-42.81l3.42,1.9l72.82,40.67l-76.54,42.75l-0.23-0.13L16.07,200.02z M13.29,244.28l35.57-19.87
	l40.74,22.74v28.89l-0.25,0.14l-76.06,42.47V244.28z M92.25,365.79l-0.23-0.13l-75.94-42.37l76.48-42.81l2.73,1.52l73.51,41.05
	L92.25,365.79z M132.36,349.48l0.25-0.14l42.95-23.95c0.84-0.47,1.36-1.36,1.36-2.33v-34.33l31.74-17.54v73.85l-76.3,42.93V349.48z
	 M211.28,435.13l-0.23-0.13l-75.9-42.39l0.75-0.42l75.72-42.39l76.24,42.58L211.28,435.13z M290.69,387.83l-6.33-3.53l6.33-6.33
	V387.83z M290.69,370.45l-11.15,11.16l-9.4-5.26l20.55-20.56V370.45z M290.69,348.29l-25.38,25.38l-9.41-5.24l34.79-34.8V348.29z
	 M290.69,326.12l-39.61,39.61l-9.41-5.25l47.36-47.35l1.66,0.92V326.12z M294.64,310.18l-8.38-4.67l44.84-25.03l1.72,0.96
	l74.51,41.61l-76.56,42.76l-34.77-19.42V312.5C296.01,311.54,295.49,310.65,294.64,310.18z"/>
</svg>
